<svg width="139" height="22" viewBox="0 0 139 22" fill="none" xmlns="http://www.w3.org/2000/svg">
<g opacity="0.8">
<g opacity="0.6">
<path d="M84.3636 5H75.6364C75.2024 5 74.7862 5.1724 74.4793 5.47928C74.1724 5.78616 74 6.20237 74 6.63636V15.3636C74 15.7976 74.1724 16.2138 74.4793 16.5207C74.7862 16.8276 75.2024 17 75.6364 17H84.3636C84.7976 17 85.2138 16.8276 85.5207 16.5207C85.8276 16.2138 86 15.7976 86 15.3636V6.63636C86 6.20237 85.8276 5.78616 85.5207 5.47928C85.2138 5.1724 84.7976 5 84.3636 5ZM84.9091 15.3636C84.9091 15.5083 84.8516 15.647 84.7493 15.7493C84.647 15.8516 84.5083 15.9091 84.3636 15.9091H75.6364C75.4917 15.9091 75.353 15.8516 75.2507 15.7493C75.1484 15.647 75.0909 15.5083 75.0909 15.3636V6.63636C75.0909 6.4917 75.1484 6.35296 75.2507 6.25067C75.353 6.14838 75.4917 6.09091 75.6364 6.09091H84.3636C84.5083 6.09091 84.647 6.14838 84.7493 6.25067C84.8516 6.35296 84.9091 6.4917 84.9091 6.63636V15.3636ZM83.2727 7.72727V11.5455C83.2727 11.6901 83.2153 11.8289 83.113 11.9311C83.0107 12.0334 82.8719 12.0909 82.7273 12.0909C82.5826 12.0909 82.4439 12.0334 82.3416 11.9311C82.2393 11.8289 82.1818 11.6901 82.1818 11.5455V7.72727C82.1818 7.58261 82.2393 7.44387 82.3416 7.34158C82.4439 7.23929 82.5826 7.18182 82.7273 7.18182C82.8719 7.18182 83.0107 7.23929 83.113 7.34158C83.2153 7.44387 83.2727 7.58261 83.2727 7.72727ZM80.5455 7.72727V14.2727C80.5455 14.4174 80.488 14.5561 80.3857 14.6584C80.2834 14.7607 80.1447 14.8182 80 14.8182C79.8553 14.8182 79.7166 14.7607 79.6143 14.6584C79.512 14.5561 79.4545 14.4174 79.4545 14.2727V7.72727C79.4545 7.58261 79.512 7.44387 79.6143 7.34158C79.7166 7.23929 79.8553 7.18182 80 7.18182C80.1447 7.18182 80.2834 7.23929 80.3857 7.34158C80.488 7.44387 80.5455 7.58261 80.5455 7.72727ZM77.8182 7.72727V9.90909C77.8182 10.0538 77.7607 10.1925 77.6584 10.2948C77.5561 10.3971 77.4174 10.4545 77.2727 10.4545C77.1281 10.4545 76.9893 10.3971 76.887 10.2948C76.7847 10.1925 76.7273 10.0538 76.7273 9.90909V7.72727C76.7273 7.58261 76.7847 7.44387 76.887 7.34158C76.9893 7.23929 77.1281 7.18182 77.2727 7.18182C77.4174 7.18182 77.5561 7.23929 77.6584 7.34158C77.7607 7.44387 77.8182 7.58261 77.8182 7.72727Z" fill="black"/>
</g>
</g>
<g opacity="0.8">
<path d="M94.328 17V5.72H99.032C100.248 5.72 101.181 5.976 101.832 6.488C102.493 7 102.824 7.72 102.824 8.648C102.824 9.34133 102.616 9.92267 102.2 10.392C101.784 10.8613 101.213 11.176 100.488 11.336V11.096C101.32 11.2027 101.965 11.496 102.424 11.976C102.883 12.456 103.112 13.0907 103.112 13.88C103.112 14.8827 102.771 15.656 102.088 16.2C101.416 16.7333 100.467 17 99.24 17H94.328ZM95.944 15.704H99.064C99.8213 15.704 100.413 15.56 100.84 15.272C101.277 14.984 101.496 14.4987 101.496 13.816C101.496 13.1333 101.277 12.648 100.84 12.36C100.413 12.072 99.8213 11.928 99.064 11.928H95.944V15.704ZM95.944 10.648H98.776C99.5867 10.648 100.195 10.4933 100.6 10.184C101.005 9.87467 101.208 9.42133 101.208 8.824C101.208 8.22667 101.005 7.77333 100.6 7.464C100.195 7.15467 99.5867 7 98.776 7H95.944V10.648ZM108.593 17.144C107.793 17.144 107.1 16.9787 106.513 16.648C105.926 16.3067 105.473 15.8267 105.153 15.208C104.833 14.5787 104.673 13.832 104.673 12.968C104.673 12.104 104.833 11.3627 105.153 10.744C105.473 10.1147 105.926 9.63467 106.513 9.304C107.1 8.96267 107.793 8.792 108.593 8.792C109.393 8.792 110.086 8.96267 110.673 9.304C111.27 9.63467 111.729 10.1147 112.049 10.744C112.38 11.3627 112.545 12.104 112.545 12.968C112.545 13.832 112.38 14.5787 112.049 15.208C111.729 15.8267 111.27 16.3067 110.673 16.648C110.086 16.9787 109.393 17.144 108.593 17.144ZM108.593 15.88C109.297 15.88 109.857 15.6347 110.273 15.144C110.689 14.6533 110.897 13.928 110.897 12.968C110.897 12.008 110.689 11.288 110.273 10.808C109.857 10.3173 109.297 10.072 108.593 10.072C107.9 10.072 107.345 10.3173 106.929 10.808C106.513 11.288 106.305 12.008 106.305 12.968C106.305 13.928 106.508 14.6533 106.913 15.144C107.329 15.6347 107.889 15.88 108.593 15.88ZM117.522 17.144C116.807 17.144 116.183 16.9787 115.65 16.648C115.117 16.3173 114.701 15.8373 114.402 15.208C114.114 14.5787 113.97 13.832 113.97 12.968C113.97 12.0933 114.114 11.3467 114.402 10.728C114.701 10.1093 115.117 9.63467 115.65 9.304C116.183 8.96267 116.807 8.792 117.522 8.792C118.226 8.792 118.839 8.968 119.362 9.32C119.885 9.672 120.231 10.152 120.402 10.76H120.226L120.386 8.936H121.954C121.922 9.26667 121.89 9.59733 121.858 9.928C121.837 10.248 121.826 10.5627 121.826 10.872V17H120.21V15.208H120.386C120.215 15.8053 119.863 16.28 119.33 16.632C118.807 16.9733 118.205 17.144 117.522 17.144ZM117.922 15.88C118.615 15.88 119.17 15.6347 119.586 15.144C120.013 14.6533 120.226 13.928 120.226 12.968C120.226 12.008 120.013 11.288 119.586 10.808C119.17 10.3173 118.615 10.072 117.922 10.072C117.218 10.072 116.653 10.3173 116.226 10.808C115.81 11.288 115.602 12.008 115.602 12.968C115.602 13.928 115.81 14.6533 116.226 15.144C116.642 15.6347 117.207 15.88 117.922 15.88ZM124.152 17V10.936C124.152 10.6053 124.141 10.2747 124.12 9.944C124.109 9.60267 124.088 9.26667 124.056 8.936H125.624L125.8 11.016H125.544C125.651 10.5147 125.832 10.0987 126.088 9.768C126.344 9.43733 126.653 9.192 127.016 9.032C127.389 8.872 127.779 8.792 128.184 8.792C128.355 8.792 128.499 8.80267 128.616 8.824C128.733 8.83467 128.851 8.856 128.968 8.888L128.952 10.328C128.771 10.2533 128.611 10.2107 128.472 10.2C128.344 10.1787 128.184 10.168 127.992 10.168C127.523 10.168 127.123 10.2747 126.792 10.488C126.461 10.6907 126.211 10.968 126.04 11.32C125.869 11.672 125.784 12.0507 125.784 12.456V17H124.152ZM133.194 17.144C132.49 17.144 131.866 16.9787 131.322 16.648C130.789 16.3173 130.373 15.8373 130.074 15.208C129.786 14.5787 129.642 13.832 129.642 12.968C129.642 12.0933 129.786 11.3467 130.074 10.728C130.373 10.1093 130.789 9.63467 131.322 9.304C131.866 8.96267 132.49 8.792 133.194 8.792C133.887 8.792 134.495 8.968 135.018 9.32C135.551 9.66133 135.903 10.1307 136.074 10.728H135.882V5.224H137.498V17H135.898V15.176H136.09C135.909 15.784 135.557 16.264 135.034 16.616C134.511 16.968 133.898 17.144 133.194 17.144ZM133.594 15.88C134.287 15.88 134.847 15.6347 135.274 15.144C135.701 14.6533 135.914 13.928 135.914 12.968C135.914 12.008 135.701 11.288 135.274 10.808C134.847 10.3173 134.287 10.072 133.594 10.072C132.89 10.072 132.325 10.3173 131.898 10.808C131.482 11.288 131.274 12.008 131.274 12.968C131.274 13.928 131.482 14.6533 131.898 15.144C132.325 15.6347 132.89 15.88 133.594 15.88Z" fill="#231F20" fill-opacity="0.82"/>
</g>
<path d="M12.4116 8.59287H3.58984C3.35778 8.59287 3.13522 8.50068 2.97113 8.33659C2.80703 8.17249 2.71484 7.94993 2.71484 7.71787V6.58887C2.71484 6.3568 2.80703 6.13424 2.97113 5.97015C3.13522 5.80605 3.35778 5.71387 3.58984 5.71387H12.4116C12.6437 5.71387 12.8662 5.80605 13.0303 5.97015C13.1944 6.13424 13.2866 6.3568 13.2866 6.58887V7.71787C13.2863 7.94983 13.194 8.1722 13.0299 8.33622C12.8659 8.50024 12.6436 8.59254 12.4116 8.59287ZM3.58984 6.46387C3.55669 6.46387 3.5249 6.47704 3.50146 6.50048C3.47801 6.52392 3.46484 6.55572 3.46484 6.58887V7.71787C3.46484 7.75102 3.47801 7.78281 3.50146 7.80626C3.5249 7.8297 3.55669 7.84287 3.58984 7.84287H12.4116C12.4447 7.84287 12.4765 7.8297 12.5 7.80626C12.5234 7.78281 12.5366 7.75102 12.5366 7.71787V6.58887C12.5366 6.55572 12.5234 6.52392 12.5 6.50048C12.4765 6.47704 12.4447 6.46387 12.4116 6.46387H3.58984ZM12.4116 16.2854H3.58984C3.35778 16.2854 3.13522 16.1932 2.97113 16.0291C2.80703 15.865 2.71484 15.6424 2.71484 15.4104V14.2814C2.71484 14.0493 2.80703 13.8267 2.97113 13.6626C3.13522 13.4986 3.35778 13.4064 3.58984 13.4064H12.4116C12.6436 13.4067 12.8659 13.499 13.0299 13.663C13.194 13.827 13.2863 14.0494 13.2866 14.2814V15.4104C13.2866 15.6424 13.1944 15.865 13.0303 16.0291C12.8662 16.1932 12.6437 16.2854 12.4116 16.2854ZM3.58984 14.1564C3.55669 14.1564 3.5249 14.1695 3.50146 14.193C3.47801 14.2164 3.46484 14.2482 3.46484 14.2814V15.4104C3.46484 15.4435 3.47801 15.4753 3.50146 15.4988C3.5249 15.5222 3.55669 15.5354 3.58984 15.5354H12.4116C12.4447 15.5354 12.4765 15.5222 12.5 15.4988C12.5234 15.4753 12.5366 15.4435 12.5366 15.4104V14.2814C12.5366 14.2482 12.5234 14.2164 12.5 14.193C12.4765 14.1695 12.4447 14.1564 12.4116 14.1564H3.58984ZM12.4116 12.4391H3.58984C3.35778 12.4391 3.13522 12.3469 2.97113 12.1828C2.80703 12.0187 2.71484 11.7962 2.71484 11.5641V10.4351C2.71484 10.2031 2.80703 9.98049 2.97113 9.8164C3.13522 9.6523 3.35778 9.56012 3.58984 9.56012H12.4116C12.6436 9.56045 12.8659 9.65274 13.0299 9.81676C13.194 9.98079 13.2863 10.2032 13.2866 10.4351V11.5641C13.2866 11.7962 13.1944 12.0187 13.0303 12.1828C12.8662 12.3469 12.6437 12.4391 12.4116 12.4391ZM3.58984 10.3101C3.55669 10.3101 3.5249 10.3233 3.50146 10.3467C3.47801 10.3702 3.46484 10.402 3.46484 10.4351V11.5641C3.46484 11.5973 3.47801 11.6291 3.50146 11.6525C3.5249 11.6759 3.55669 11.6891 3.58984 11.6891H12.4116C12.4447 11.6891 12.4765 11.6759 12.5 11.6525C12.5234 11.6291 12.5366 11.5973 12.5366 11.5641V10.4351C12.5366 10.402 12.5234 10.3702 12.5 10.3467C12.4765 10.3233 12.4447 10.3101 12.4116 10.3101H3.58984Z" fill="black"/>
<path d="M21.328 17V5.72H22.992V15.576H28.528V17H21.328ZM30.0121 17V8.936H31.6281V17H30.0121ZM29.8841 7.256V5.576H31.7561V7.256H29.8841ZM36.7645 17.144C36.0925 17.144 35.4738 17.0587 34.9085 16.888C34.3432 16.7173 33.8738 16.4773 33.5005 16.168L33.9965 15.064C34.3912 15.3627 34.8285 15.5867 35.3085 15.736C35.7885 15.8853 36.2792 15.96 36.7805 15.96C37.3672 15.96 37.8098 15.8587 38.1085 15.656C38.4072 15.4427 38.5565 15.1547 38.5565 14.792C38.5565 14.5147 38.4605 14.2907 38.2685 14.12C38.0872 13.9493 37.7832 13.8213 37.3565 13.736L35.8205 13.432C35.1378 13.2827 34.6205 13.0267 34.2685 12.664C33.9165 12.3013 33.7405 11.8373 33.7405 11.272C33.7405 10.792 33.8685 10.3653 34.1245 9.992C34.3912 9.61867 34.7645 9.32533 35.2445 9.112C35.7352 8.89867 36.3058 8.792 36.9565 8.792C37.5538 8.792 38.1085 8.87733 38.6205 9.048C39.1325 9.21867 39.5592 9.464 39.9005 9.784L39.3885 10.856C39.0578 10.5787 38.6845 10.3653 38.2685 10.216C37.8525 10.056 37.4312 9.976 37.0045 9.976C36.4072 9.976 35.9645 10.088 35.6765 10.312C35.3885 10.536 35.2445 10.8293 35.2445 11.192C35.2445 11.4693 35.3298 11.6987 35.5005 11.88C35.6818 12.0507 35.9645 12.184 36.3485 12.28L37.8845 12.584C38.6098 12.7333 39.1538 12.9787 39.5165 13.32C39.8792 13.6613 40.0605 14.12 40.0605 14.696C40.0605 15.1973 39.9218 15.6347 39.6445 16.008C39.3672 16.3813 38.9832 16.664 38.4925 16.856C38.0018 17.048 37.4258 17.144 36.7645 17.144ZM45.0231 17.144C44.1485 17.144 43.4871 16.9093 43.0391 16.44C42.5911 15.96 42.3671 15.2453 42.3671 14.296V10.184H40.7991V8.936H42.3671V6.808L43.9831 6.376V8.936H46.2231V10.184H43.9831V14.152C43.9831 14.7493 44.0898 15.176 44.3031 15.432C44.5165 15.688 44.8258 15.816 45.2311 15.816C45.4338 15.816 45.6098 15.8 45.7591 15.768C45.9191 15.7253 46.0631 15.6773 46.1911 15.624V16.936C46.0311 17 45.8445 17.048 45.6311 17.08C45.4178 17.1227 45.2151 17.144 45.0231 17.144Z" fill="black"/>
</svg>
